<?xml version="1.0" encoding="UTF-8"?>
<svg enable-background="new 0 0 779 599" version="1.1" viewBox="0 0 779 599" xmlns="http://www.w3.org/2000/svg">
 <path d="m334.78 400.68c-6.892-0.777-14.262-1.834-21.403-3.223-3.294-1.258-6.583-2.49-9.836-3.688-11.108-4.098-20.851-11.23-32.052-14.939-3.54-1.17-12.13 3.988-6.224 5.943 10.087 3.338 18.766 10.037 28.743 13.717 0.771 0.283 1.569 0.586 2.346 0.875-0.308 0.869 0.156 1.666 1.949 2.111 1.011 0.25 2.022 0.459 3.028 0.691 3.571 2.816 8.393 2.83 12.297 5.061 0.917 0.527 2.226 0.475 3.508 0.227 4.89 2.027 9.732 4.121 14.361 6.357 2.424 1.17 10.082-0.023 9.227-3.998-0.779-3.612-1.601-8.643-5.944-9.134zm182.73-22.99c-1.652-1.947-4.916-1.109-6.907-0.396 5e-3 -0.018 5e-3 -0.039 0.01-0.057-1.484 0.396-4.121 1.656-4.398 3.496-0.725 0.246-1.428 0.523-2.049 0.826-2.657 1.295-5.4 2.285-7.688 4.193-1.846-0.039-4.306 0.5-6.016 1.488-2.033 0.25-4.933 0.941-6.094 2.148-0.423-0.063-0.845-0.104-1.235-0.102-4.42 0.025-8.669 1.34-12.666 3.154-0.818 0.371-1.491 0.99-2.013 1.689-3.931 0.32-8.097 2.068-11.683 2.387-1.37 0.121-3.026 0.646-4.283 1.527-2.686-0.555-5.614-0.605-7.663 0.107-2.055 0.715-3.937 1.59-4.982 3.623-1.007 1.963 0.808 3.729 0.901 5.674 0.28 5.654 7.688 3.932 11.023 2.383 5.917-2.75 12.35-4.301 18.344-6.898 0.673-0.291 1.424-0.816 2.013-1.459 1.876 0.391 3.814 0.072 5.624-0.697 3.003-1.273 6.287-2.211 8.943-4.26 0.564-0.438 0.966-1.01 1.273-1.619 0.03-0.016 0.062-0.021 0.093-0.033 0.595-0.264 1.501-0.807 2.2-1.475 2.007-0.385 4.029-1.199 5.38-1.879 2.382-1.193 4.998-2.057 7.224-3.527 2.473-1.637 4.771-2.92 7.466-4.232 0.146-0.07 0.308-0.164 0.475-0.273 0.525-0.055 1.031-0.139 1.418-0.242 0.911-0.242 1.793-0.574 2.68-0.893 1.582-0.569 4.158-2.825 2.61-4.653z"/>
 <path d="m516.76 281.77c1.022 7.371 2.48 32.368 10.947 36.44 27.417 13.182 37.029-48.739 40.074-63.652 3.032-14.84-1.169-49.76-23.688-41.365-0.74 0.273-1.271 0.615-1.657 0.993-9.819-4.237-21.101-3.147-24.688 8.864-5.314 17.804-3.501 40.705-0.988 58.72z" fill="#D8B78B"/>
 <path d="m260.96 223.05c-3.581-12.013-14.867-13.102-24.692-8.864-0.375-0.377-0.907-0.719-1.647-0.993-22.518-8.396-26.725 26.524-23.696 41.365 3.044 14.913 12.667 76.833 40.085 63.652 8.465-4.072 9.92-29.069 10.946-36.44 2.503-18.015 4.316-40.916-0.996-58.72z" fill="#D8B78B"/>
 <path d="m541.94 249.23c0-81.541-68.14-147.64-152.2-147.64-84.05 0-152.19 59.898-152.19 147.64 0 163.85 68.139 147.64 152.19 147.64 84.057 0 152.2 16.209 152.2-147.64z" fill="#7F512E" stroke="#000" stroke-miterlimit="10" stroke-width="4.252"/>
 <path d="m264.4 300.09c0 75.785 56.358 137.22 125.88 137.22 69.51 0 125.87-61.438 125.87-137.22 0-75.79-0.667-171.61-126.42-141.77-142.43-29.839-125.33 65.982-125.33 141.77z" fill="#D8B78B" stroke="#000" stroke-miterlimit="10" stroke-width="4.252"/>
 <path d="m364.27 259.2c0-25.159-15.939-45.557-35.611-45.557-19.662 0-35.607 20.397-35.607 45.557s15.945 45.558 35.607 45.558c19.672 0 35.611-20.399 35.611-45.558z" fill="#fff" stroke="#000" stroke-miterlimit="10" stroke-width="4.252"/>
 <path d="m487.03 259.2c0-25.159-15.939-45.557-35.612-45.557-19.662 0-35.602 20.397-35.602 45.557s15.939 45.558 35.602 45.558c19.673 0 35.612-20.399 35.612-45.558z" fill="#fff" stroke="#000" stroke-miterlimit="10" stroke-width="4.252"/>
 <path d="m316.62 275.01c0 12.401 6.432 22.453 14.366 22.453 7.938 0 14.371-10.052 14.371-22.453 0-12.398-6.433-22.451-14.371-22.451-7.935 1e-3 -14.366 10.053-14.366 22.451z"/>
 <path d="m434.05 275.01c0 12.401 6.433 22.453 14.366 22.453 7.944 0 14.376-10.052 14.376-22.453 0-12.398-6.432-22.451-14.376-22.451-7.935 1e-3 -14.366 10.053-14.366 22.451z"/>
 <path d="m545.72 378.17c0 51.686-69.838 93.584-155.98 93.584-86.14 0-155.97-41.898-155.97-93.584 0-51.682 69.833-93.582 155.97-93.582 86.138 0 155.98 41.9 155.98 93.582z" fill="#D8B78B" stroke="#000" stroke-miterlimit="10" stroke-width="4.252"/>
 <path d="m234.46 362.16c155.33 93.584 310.67 0 310.67 0" fill="none" stroke="#000" stroke-miterlimit="10" stroke-width="4.252"/>
 <path d="m235.6 362.16c154.54 133.02 308.7 0 308.7 0" fill="none" stroke="#000" stroke-miterlimit="10" stroke-width="4.252"/>
 <path d="m398.13 495.28c-1.297 0-2.609-8e-3 -3.936-0.014-1.363-0.01-2.74-0.018-4.128-0.018l-5.596 0.01c-13.894 0-25.16-0.648-33.198-8.828-9.228-9.389-13.525-27.947-13.525-58.41 0-8.912 0.4-16.99 1.189-24.055 14.612 2.166 29.581 3.264 44.531 3.264 18.82 0 38.174-1.725 57.569-5.125 0.896 7.465 1.35 16.17 1.35 25.916 0 30.17-4.063 48.645-12.787 58.143-7.743 8.43-18.832 9.117-31.463 9.117h-6e-3z" fill="#c03"/>
 <path d="m439.18 404.59c0.722 6.871 1.086 14.73 1.086 23.439 0 29.199-4 47.748-12.227 56.705-7.174 7.809-17.349 8.43-29.904 8.43-1.293 0-2.604-8e-3 -3.927-0.016-1.366-8e-3 -2.747-0.016-4.138-0.016-0.955 0-1.904 2e-3 -2.846 4e-3 -0.923 2e-3 -1.839 6e-3 -2.75 6e-3 -13.389 0-24.223-0.604-31.683-8.193-8.69-8.842-12.915-27.461-12.915-56.92 0-7.928 0.318-15.182 0.948-21.633 14.017 1.969 28.341 2.967 42.646 2.967 18.223 0 36.942-1.605 55.71-4.773m3.685-4.963c-18.256 3.32-38.226 5.484-59.393 5.484-14.938 0-30.468-1.088-46.382-3.568-0.949 7.467-1.465 16.189-1.465 26.484 0 67.25 21.41 69.365 48.85 69.365 1.842 0 3.705-0.01 5.596-0.01 2.737 0 5.435 0.031 8.063 0.031 26.25 0 46.382-3.021 46.382-69.387 2e-3 -11.171-0.577-20.53-1.651-28.399z"/>
 <path d="m242.42 315.37c-0.021 2e-3 -2.513 0.578-6.026-1.576-5.468-3.346-13.042-12.877-18.14-39.478-2.992-11.104-4.545-20.097-5.098-27.376-0.109-1.458-0.177-2.844-0.214-4.166-0.328-13.224 3.039-19.92 6.74-23.297 5.9-5.382 14.533-4.144 18.536-3.161 1.335 0.325 2.158 0.625 2.189 0.639l1.871-5.001c-0.646-0.24-15.862-5.799-26.162 3.552-8.976 8.15-10.863 24.713-5.682 49.17 0.735 3.479 1.616 7.121 2.638 10.921 4.348 22.688 11.259 37.075 20.532 42.75 3.237 1.984 6.052 2.426 7.929 2.426 1.324 0 2.184-0.223 2.377-0.279l-1.49-5.124z"/>
 <path d="m562.89 215.5c-10.289-9.349-25.511-3.792-26.156-3.552l1.866 5.001c0.124-0.052 12.874-4.647 20.725 2.522 0.376 0.336 0.741 0.709 1.104 1.115 5.036 5.7 8.747 18.539 1.93 47.427-0.479 2.021-1.013 4.116-1.596 6.297-0.021 0.068-0.031 0.125-0.052 0.193-4.984 26.054-12.438 35.652-17.816 39.113-3.648 2.35-6.256 1.76-6.309 1.746l-1.49 5.125c0.198 0.057 1.054 0.279 2.389 0.279 1.864 0 4.69-0.445 7.923-2.426 9.289-5.688 16.199-20.1 20.506-42.644 8.235-30.64 7.224-50.893-3.024-60.196z"/>
 <path d="m291.1 213.28c0.141 3 2.857-2.398 4.717-4.115 3.159-2.911 7.553-5.272 11.974-7.373 11.155-5.296 24.645-7.3 37.275-7.563 2.602-0.056 3.153-16.313-2.585-16.19-27.908 0.576-58.564 12.445-57.657 31.833 0.125 2.729 0.25 7.811 3.618 9.633 2.516 1.367 2.679-5.881 2.658-6.225z"/>
 <path d="m490.11 213.28c-0.142 3-2.856-2.398-4.719-4.115-3.157-2.911-7.554-5.272-11.974-7.373-11.155-5.296-24.645-7.3-37.274-7.563-2.603-0.056-3.153-16.313 2.585-16.19 27.908 0.576 58.563 12.445 57.656 31.833-0.125 2.729-0.25 7.811-3.618 9.633-2.515 1.367-2.677-5.881-2.656-6.225z"/>
 <line x1="389.74" x2="389.74" y1="406.07" y2="443.4" fill="none" stroke="#000" stroke-linecap="round" stroke-miterlimit="10" stroke-width="2.8347"/>
</svg>
